# xmcd
#
# Track frame offsets: 
#        150
#        17859
#        31655
#        51355
#        64607
#        79046
#        96358
#        116317
#        134385
#        154682
#        172510
#        185494
#        203096
#        221792
#
# Disc length: 3208 seconds
#
# Revision: 1
# Processed by: cddbd v1.5.2PL0 Copyright (c) Steve Scherf et al.
# Submitted via: ExactAudioCopy v1.0b3
#
DISCID=b30c860e
DTITLE=Johnny Rawls - Red Cadillac
DYEAR=2008
DGENRE=Blues
TTITLE0=Red Cadillac
TTITLE1=Mississippi Barbeque
TTITLE2=Can I Get It
TTITLE3=American Blues
TTITLE4=Hard Times
TTITLE5=Falling For You
TTITLE6=I Want To Thank You
TTITLE7=Get It While You Can
TTITLE8=Wash Your Hands
TTITLE9=Sure Miss Your Love
TTITLE10=Moment Of Weakness
TTITLE11=No One Gives A Damn
TTITLE12=Cheatin' Woman
TTITLE13=Looking For Trouble
EXTD=
EXTT0=
EXTT1=
EXTT2=
EXTT3=
EXTT4=
EXTT5=
EXTT6=
EXTT7=
EXTT8=
EXTT9=
EXTT10=
EXTT11=
EXTT12=
EXTT13=
PLAYORDER=
